<svg data-name="Ebene 1" xmlns="http://www.w3.org/2000/svg" width="132.47" height="148.95" viewBox="0 0 132.47 148.95"><path fill="white" d="M81.88,148.88c-11.14,0-22.28,0-33.41,0a17.57,17.57,0,0,1-6.55-1.33,37.42,37.42,0,0,1-4-1.77,4.73,4.73,0,0,0-3.09-.53,5.69,5.69,0,0,1-1.5-.31c-1.73-.54-3.5-.93-5.22-1.49a12.8,12.8,0,0,0-3.22-.49c-1.32-.08-2.16-.95-3.13-1.55a12.27,12.27,0,0,0-2-.82c-1.09-.43-2.15-1-3.2-1.51a12.44,12.44,0,0,1-3.28-2.23c-.48-.48-1-.93-1.47-1.41a1.2,1.2,0,0,0-1.59-.22c-.6.36-1,.35-1.23-.39s-1.13-.77-1.22-1c-.29-1-1-1.8-1-2.84,0-2.52-.25-5.09,0-7.56.36-3.6-.44-7.07-.44-10.62,0-1.56-.71-3.11-1-4.68-.52-3.42-1.84-6.65-2.4-10S1.28,91.78.49,88.63A19.72,19.72,0,0,1,.34,85C.26,83.72.16,82.43,0,81.15c-.09-.78.15-1.52.08-2.33-.17-2,0-3.94,0-5.91a40.24,40.24,0,0,1,.3-5.26c.41-2.94.77-5.87,1.26-8.79.42-2.43,1.57-4.61,2-7C4.09,49,5.3,46.3,5.85,43.48c.59-3,1.55-6,2.17-9a20.81,20.81,0,0,1,1.61-5.12,15.86,15.86,0,0,0,.87-4.32c.52-3.09.41-6.28,1.59-9.27A9.15,9.15,0,0,0,12.27,14c.23-1.56,1.49-2.52,2.33-3.72a8.28,8.28,0,0,0,1-1.59A2.32,2.32,0,0,1,19,7.26c.49.24.67,0,.87-.18C21.38,6,23.12,5.77,24.92,5.51a23.88,23.88,0,0,0,4-1.17A6.16,6.16,0,0,1,31.51,4a30.31,30.31,0,0,0,3.14-.47,11.23,11.23,0,0,1,3.17.07c1,.21,2-.38,3-.49,3.89-.41,7.76-1,11.68-1.21a28.62,28.62,0,0,0,5.15-.77c.77-.19,1.46.2,2.22.17a42.2,42.2,0,0,0,6.79-.8,26.42,26.42,0,0,1,5-.53,43.63,43.63,0,0,1,8,.66c1.38.25,2.76.52,4.14.79C86.93,2,90,2.78,93.07,3.38c1.58.32,3.07,1,4.71,1.1a46.4,46.4,0,0,1,11.11,1.89c2.28.63,4.62.88,6.89,1.52,1.47.41,3.19.28,4.53,1,1.51.82,3.26,1.16,4.58,2.23A13,13,0,0,1,128.11,15a20.73,20.73,0,0,1,2.07,6.47,30.42,30.42,0,0,1,.67,8.07c-.31,3.29,0,6.57-.06,9.86,0,1.62.48,3.26.33,4.86-.28,3,.5,5.9.62,8.86a21.49,21.49,0,0,0,.59,5.24c.35,1.18-.07,2.36-.09,3.51,0,1.94.45,4,0,5.79a25.45,25.45,0,0,0-.48,7.47c.14,2.51-.22,5,0,7.5a68.35,68.35,0,0,1,.06,9.49c-.21,4.23.13,8.48-.6,12.7-.58,3.33-.86,6.71-1.21,10.08-.21,2,0,4.11-.21,6.16-.32,3.22-.34,6.5-1,9.66a27.55,27.55,0,0,1-1.55,5.25c-.47,1.15-.48,2.51-.94,3.71-.79,2.05-1.4,4.23-3.24,5.63-2.31,1.75-4.38,3.71-7.74,3.65C104.24,148.77,93.06,148.88,81.88,148.88ZM30.88,8.77a25.38,25.38,0,0,0-5.52.68,14.73,14.73,0,0,0-3.27,1.13,17.11,17.11,0,0,0-2.87,2.05c-1.5,1.24-3.26,2.44-3.32,4.79-.05,1.89-1,3.67-.89,5.59a35.75,35.75,0,0,1-.29,5.07c-.21,2.41-1,4.79-.65,7.21.31,2-.34,3.94-.18,5.92.11,1.25-.49,2.68,1,3.56.2.12.1.41,0,.52-1.14,1-.92,2.41-.69,3.46.61,2.77-.2,5.39-.35,8.08-.13,2.49-.42,5-.45,7.47,0,1.35-.12,2.69-.19,4a41.59,41.59,0,0,0,.18,6.51,4.06,4.06,0,0,1,0,2.24,2.6,2.6,0,0,0-.15,1c0,1.73-.15,3.46-.19,5.19a15.51,15.51,0,0,0,0,4.25c.47,2,0,4-.23,6.06-.34,2.43-.56,4.94.62,7.26.17.34,0,.47-.07.72-.15.63-1,.81-.91,1.58.22,1.5.25,3,.32,4.52a10.33,10.33,0,0,1-.07,3.09c-.35,1.41.07,2.91-.13,4.3s-.33,3-.5,4.46a2.12,2.12,0,0,0,.09,1.56c.88,1.3,1.81,2.58,2.58,3.94.63,1.1,1.52,2,2.14,3.05a20,20,0,0,0,3.58,4.06,35.27,35.27,0,0,0,3.18,2.88,17.61,17.61,0,0,1,2.06,1.55,8.59,8.59,0,0,0,3.62,2.11A29,29,0,0,0,33.67,140c1.95.24,3.77,1.23,5.79,1.22a4.65,4.65,0,0,1,1.54,0,16.45,16.45,0,0,0,5.72.56c1-.08,1.92,0,2.87-.05,1.13-.06,2.28.36,3.37,0,2.5-.77,5-.28,7.48,0,1.69.19,3.48.6,5,.15s3.21.19,4.82-.11a12.74,12.74,0,0,1,4.12.11,28.6,28.6,0,0,0,4.17.43c1.36,0,2.61.82,4.07.48a4.89,4.89,0,0,1,2.26.22,41.88,41.88,0,0,1,4.4,1.44,25.33,25.33,0,0,0,3.62.76c1.24.3,2.47.7,3.74.92,2.15.37,4.34.49,6.49.9a4.32,4.32,0,0,0,3.16-.41c1.9-1.13,3.54-2.58,5.31-3.88,2.82-2.09,4.84-4.92,7.24-7.39a52,52,0,0,0,3.86-5.27,9.19,9.19,0,0,0,2-4.15c.24-2,1-3.91,1.07-6,.07-2.25.47-4.47,0-6.74a11.35,11.35,0,0,1,.15-5.55,5.27,5.27,0,0,0,.18-2.22c-.36-2.36,0-4.72-.14-7.07-.13-3-.53-6,0-9,.36-2.2,0-4.45.07-6.69.1-2.64.38-5.29.29-7.94,0-1,.45-1.94.32-2.85-.38-2.57-.21-5.15-.37-7.72-.13-2.21.08-4.44-.19-6.65a19.83,19.83,0,0,1-.09-5.33,18.87,18.87,0,0,0,.11-3.67,49.21,49.21,0,0,1,.25-9.4,33.54,33.54,0,0,0,.2-6.65c-.11-2.71-1.62-4.94-2.21-7.48-.44-1.9-1.56-3.52-2.09-5.41a8,8,0,0,0-2.15-3.89,14.47,14.47,0,0,0-4.69-2.86c-2.43-.87-4.88-1.72-7.36-2.44A25.38,25.38,0,0,0,101.67,9c-2.91,0-5.65-1-8.52-1.13-1.5-.08-3-.13-4.52-.3s-3,.21-4.41,0c-2.43-.28-4.86-.15-7.29-.26a63.83,63.83,0,0,0-6.4.46c-1.86.1-3.71-.1-5.58.06s-4,0-6,.09a30.23,30.23,0,0,0-4.65.14c-1.81.36-3.68.18-5.52.57-2.12.44-4.3,1.05-6.48.64a27.94,27.94,0,0,0-4.58-.56C35.54,8.7,33.31,8.9,30.88,8.77ZM10,42.89c-.64.22-.78.6-.74,1,.13,1.35-.51,2.53-.86,3.75C7.21,51.9,6,56.18,5,60.51a20.75,20.75,0,0,0-.76,4.27c0,2.19-.34,4.39-.53,6.58a23,23,0,0,0-.37,4.79c.33,2.54-.08,5.1.43,7.63.34,1.7.36,3.46.62,5.18.42,2.77,1.3,5.44,1.77,8.21a6.61,6.61,0,0,0,1.23,3.15,7.28,7.28,0,0,0,.64-4A12.1,12.1,0,0,1,8,93.06c.45-2.15-.48-4.38.36-6.5a.24.24,0,0,0,0-.12c-.76-2.26.09-4.47.18-6.7s.58-4.66.63-7a39.12,39.12,0,0,1-.07-4.83c.3-2.09,0-4.14.19-6.19s.33-3.81.47-5.72c.12-1.56.67-3,.59-4.66C10.18,48.58,9.49,45.82,10,42.89Zm106.89,101c2.86-.71,4.31-3.22,5.24-4.87.11-.2.31-.42,0-.6s-.35.09-.48.21c-.51.49-1,1-1.53,1.48A24.06,24.06,0,0,0,116.91,143.9ZM74.61,3.34c-1.21.26-2-.61-2.91-.26s-1.78.22-2.55.78C70.86,3.55,72.66,4.85,74.61,3.34Z"/><path fill="white" d="M67.37,21.17c-3.68-.68-7.22.18-10.72,1.2A23,23,0,0,0,52,24.16c-1.29.74-3,1.18-3.88,2.83-.64,1.16-1.94,2.05-2.79,3.21a35.73,35.73,0,0,0-2.77,5.13c-1.7,3.34-2.18,7-2.76,10.63-.32,2,0,4.08-.16,6.11-.29,3,.77,6,.55,9,0,0,0,.07,0,.11.26.67-.29,1.37.08,2,.54.95,1.21,0,1.84.07a2.46,2.46,0,0,0,2-.54,1.94,1.94,0,0,1,2.76.21,5.55,5.55,0,0,0,2.85,1.39,1.06,1.06,0,0,1,.72.36c1.06,1.91,2.78,3.32,3.88,5.19.83,1.4.87,3.1,1.59,4.52,1.15,2.27,1.17,4.78,1.62,7.18.23,1.22-.05,2.6.16,3.89a82.19,82.19,0,0,1,1.13,13.83c0,1.84-.6,3.67-.6,5.51a68.32,68.32,0,0,1-1.49,12.92,7.8,7.8,0,0,1-2.61,4.12c-1.72,1.71-3.58,3.27-5.14,5.13-.92,1.1-2.36,1.29-3.59,1.61a32,32,0,0,1-3.15.69,3.42,3.42,0,0,1-3.17-1.12c-1.07-1.21-2.57-1.79-3.65-2.95-1.41-1.51-3.12-2.74-4.55-4.22A11,11,0,0,1,29,118.09c-1.19-2.51-2.32-5-3.56-7.52a15.75,15.75,0,0,1-1.45-5.3c-.41-3.56-1.19-7.09-1-10.71a9.74,9.74,0,0,0-.22-1.76c-.41-3.08.55-5.85,1.7-8.66a38.93,38.93,0,0,1,2.4-4.94A43.13,43.13,0,0,1,30.92,73a18.61,18.61,0,0,1,1.63-2.32c.31-.28.25-.65.25-1,0-1.3-.06-2.6,0-3.89a17.73,17.73,0,0,0-.74-5.46,18.68,18.68,0,0,1-1-5.21,7.68,7.68,0,0,0-.24-1.84,18.39,18.39,0,0,1,0-5.64c.16-2,1.07-3.77,1.61-5.65a39,39,0,0,1,2.13-6,27.44,27.44,0,0,1,3.82-5.86c1-1.16,2-2.29,2.89-3.57a24.06,24.06,0,0,1,6.57-6.88c2.58-1.66,5-3.7,8-4.44A42.94,42.94,0,0,1,63,14.13a25,25,0,0,1,6.21.46,64.74,64.74,0,0,1,10.89,2.8c1.87.68,3.45,2,5.43,2.38a5.49,5.49,0,0,1,3.24,2.11c1.75,2.14,4.07,3.64,6.2,5.36a40.93,40.93,0,0,1,5.58,4.86,21.42,21.42,0,0,1,2.58,3.22,28.72,28.72,0,0,1,3.77,9.78,57.25,57.25,0,0,0,1.39,7.65,15,15,0,0,1-.19,7.58,12.7,12.7,0,0,1-2.87,5.76c-.4.45-.44.62.08,1.07a5.32,5.32,0,0,1,2.12,3.36,1.06,1.06,0,0,0,.47.77A2.2,2.2,0,0,1,109,73.42c-.07.52.42,1.16.77,1.68a23.78,23.78,0,0,1,3.28,8c.48,2,.59,4.1,1.25,6.08a2,2,0,0,1,0,1.85c-.27.46-.07,1.24,0,1.86.26,1.78.53,3.56.87,5.33.49,2.47-.31,4.89-.22,7.33a14.2,14.2,0,0,1-2.93,8.84c-1.06,1.53-2.26,3-3.25,4.55a4.05,4.05,0,0,1-1.42,1.4,14.2,14.2,0,0,1-4.5,1.92c-1.4.2-2.84.1-4.23.33-2.2.38-4.47,0-6.64.7a1.38,1.38,0,0,1-1.38-.52c-.9-1-2.27-1.39-3.22-2.32a13.56,13.56,0,0,0-5.27-3.49,1.1,1.1,0,0,1-.63-.64,2.58,2.58,0,0,0-2.1-1.82c-1.15-.29-1.22-1.28-.18-2.2.35-.31.59-.61.4-1-.53-.92-.14-1.64.28-2.43.55-1,.36-2.24.56-3.36a18.37,18.37,0,0,0-.26-6,8,8,0,0,1,0-2c.27-2.7.16-5.45.82-8.08,1-3.79.69-7.79,2.11-11.5.54-1.41.81-2.92,1.28-4.37a11.9,11.9,0,0,1,4.83-6.39,14.2,14.2,0,0,1,4.66-2.46c.44-.1.33-.66.23-.93-.57-1.5.07-3-.16-4.56a27.88,27.88,0,0,0-.55-4c-.4-1.4-.19-2.83-.42-4.25-.67-4-1.79-7.83-4.5-11.07-1.22-1.46-2.08-3.23-3.23-4.77-2-2.72-4.49-5.07-6.72-7.61-1.61-1.84-3.76-2.69-5.78-3.83-.86-.49-1.23-1.52-2.25-1.91S68.58,20.74,67.37,21.17Zm43.22,73.24c-1.5,4.06-1.43,12.58.11,14.48C112.07,104,111.37,99.18,110.59,94.41ZM28.39,105a2.61,2.61,0,0,0,.54,1.85c.41.67,1.28,1.18,1.86.7,1.13-.93,2.42-.76,3.66-1,.3-.06.72.06.83-.3s-.28-.54-.52-.69a10.7,10.7,0,0,0-5.23-1.76C28.64,103.7,28.12,103.91,28.39,105Zm73.44-8a8.78,8.78,0,0,0-1,3.39c-.16.77-.57,1.55-.28,2.32s1.34.7,1.8,1.41a.87.87,0,0,0,1.19.13c.32-.28.29-.71.26-1.19A10.15,10.15,0,0,0,101.83,97Zm-17.2-.72c-.12.19-.29.34-.3.5a10,10,0,0,0,.07,3.54c.08.28.12.59.58.62a11.65,11.65,0,0,1,4.11,1.16c.22.1.48.21.65,0s0-.46-.16-.72c-1-1.5-2.51-2.46-3.64-3.82A5.46,5.46,0,0,0,84.63,96.25ZM34.29,82.71c-1.69-.31-2.62.48-1.76,2.22.55,1.12,1.27,2.16,1.86,3.27.26.47.54.12.65,0a1.77,1.77,0,0,0,.39-1c.31-1.17,0-2.44.66-3.56.22-.38,0-.69-.52-.84A5.61,5.61,0,0,0,34.29,82.71Zm57.84,29.56c0,1.14-.73,1.73-1.69,1.29-.48-.22-.83,0-1.23,0s-.46-.06-.56.21.22.29.36.44c.69.74,1.75,1.05,2.31,1.93.3.47.51.38.76,0a18,18,0,0,0,2-4c.12-.38.2-.72-.2-.9a3.45,3.45,0,0,0-1.41-.44c-.55,0-.43.66-.54,1C91.93,112,92.09,112.16,92.13,112.27Zm6.35-15.89a17.1,17.1,0,0,0-2,3.74c-.21.51-.35,1-1.06,1.09-1,.19-1.12.64-.44,1.49a3.91,3.91,0,0,1,.85,1.53c.05.18-.16.61.34.58s.28-.3.4-.48c.61-.94.33-2.09.78-3.07A17.46,17.46,0,0,0,98.48,96.38Zm3.87-5.87a5.45,5.45,0,0,1,3.08-1c-.11-.72-.7-1.09-.77-1.75-.11-1.08-.83-1.49-1.83-1.69-.65-.13-.87,0-.86.66A11.4,11.4,0,0,0,102.35,90.51Zm2.27,19.33a1.94,1.94,0,0,0-1.44.81c-.91,1.17-1.75,2.4-2.71,3.53a.73.73,0,0,0,.09,1.18c.33.31.65.22,1.09-.07C103.6,114,103.66,111.82,104.62,109.84Zm-.17-58.91c-.5,1.23-.15,2.51-.2,3.76-.09,2.08.62,4.25-.68,6.19a.82.82,0,0,0-.12.33.48.48,0,0,0,.19.53c.35.22.33-.2.48-.32.63-.5.45-1.31.7-2C105.88,56.58,105.06,53.76,104.45,50.93ZM47.63,88.51a1.08,1.08,0,0,0-.77,1.08c0,1.39-.14,2.79-.07,4.17a5.24,5.24,0,0,0,.31,2.1c.13.26.2.55.55.47a.49.49,0,0,0,.44-.6A48.77,48.77,0,0,1,47.63,88.51ZM28.09,90.17A4.42,4.42,0,0,0,27,92.83c.07,1.07,1.09,1,1.65,1.46.09.08.15.18.24.27s.31.26.52.11.37-.33.21-.6C28.88,92.88,29,91.4,28.09,90.17ZM36.66,120c-.28-.14-.3.1-.39.28s-.17.38.14.4.33.28.44.48a4.94,4.94,0,0,0,2.58,2c.35.16.78.38,1-.2a.75.75,0,0,0-.48-1,5.82,5.82,0,0,1-2.09-1.38A7.91,7.91,0,0,0,36.66,120ZM35.31,96.52a4.71,4.71,0,0,0-1.22-4.33c-.18-.18-.42-.43-.71-.3a.56.56,0,0,0-.16.51C33.86,93.72,34.1,95.25,35.31,96.52Zm-.06,12.78c-.76.2-1.54.33-1.53,1.27a1,1,0,0,0,.91,1.14c.48,0,1.79-1.36,1.7-1.81C36.22,109.28,35.57,109.54,35.25,109.3Zm18.53,1.39c.48-.91.9-1.64.63-2.44-.35-1.08-.9-2.1-1.21-3.22A13.46,13.46,0,0,0,53.78,110.69Zm37.39-38.2c0,.63,1.47,1.86,2.16,1.83.5,0,.29-.32.23-.57-.16-.73-.89-1.07-1.2-1.72-.13-.28-.41-.66-.84-.47S91.16,72.13,91.17,72.49Zm-49,26.7c0-.46,0-.78-.4-1a1,1,0,0,0-1,0c-.46.25-.07.56-.06.82,0,.57.15,1.13.19,1.7,0,.31.12.64.39.63a.84.84,0,0,0,.56-.54C42,100.25,41.87,99.63,42.13,99.19Zm4.81,12.71c-.51-.1-1.07-.23-1.23.51-.07.38,1.22,1.57,1.61,1.47.68-.17.66-.91.71-1.35S47.6,111.63,46.94,111.9ZM91,31.88c-.66,1-.78,1.71-.09,2.34s.65,1.63.94,2.46c.1.28.25.58.56.5s.23-.43.14-.68A28.34,28.34,0,0,1,91,31.88Zm-13-10.51c1,1.05,1.86,1.82,3.13,1.93.19,0,.37.33.59.05s.07-.53-.16-.71A7.38,7.38,0,0,0,78.05,21.37ZM92.52,81.29c.38-.52.38-.89-.2-1.24s-1-.8-1.48-1.17c-.23-.17-.47-.67-.84-.23s-.12.73.23,1C91,80.2,91.76,80.74,92.52,81.29Zm1,5.17a1.39,1.39,0,0,0-.1-1.92c-.51-.64-1-.1-1.6-.05C92.64,85.11,92.74,86.07,93.54,86.46ZM98.28,35c-.23,1.57,1,2.14,1.51,3.12.15.29.3.71.64.51a.6.6,0,0,0,0-.94A10.9,10.9,0,0,1,98.28,35Zm5.38,36.17A1.74,1.74,0,0,0,102.5,70c-.35-.09-.47.39-.52.74-.12.85.61.79,1.07,1S103.46,71.33,103.66,71.13ZM32.91,78.2c.07,0,.2,0,.21-.06a14.59,14.59,0,0,1,1.05-2.09.47.47,0,0,0-.16-.4c-.22-.14-.4,0-.46.22a4.55,4.55,0,0,1-.92,1.87C32.4,78,32.61,78.16,32.91,78.2Zm20,38.59c0-.39-.08-.75-.47-.72s-.69.43-.86.85a.49.49,0,0,0,.37.71C52.46,117.62,52.68,117.15,52.92,116.79ZM43,67.2c-.63,0-1.24-.31-1.54.47-.08.19,0,.41.19.46C42.31,68.28,42.66,67.87,43,67.2Z"/></svg>