<svg id="Ebene_1" data-name="Ebene 1" xmlns="http://www.w3.org/2000/svg" width="80" height="138.44" viewBox="0 0 80 138.44"><path d="M37.07,2c1.3.82,2.57.19,3.82-.39.14-.07.19-.33.26-.5C41.72-.21,42-.28,43.24.5a5.31,5.31,0,0,0,1.66.71c1,.21,1.4,1.59,1.33,2.63,0,.23-.25.5-.18.67.93,2.23.88,4.74,2.25,6.87a32.16,32.16,0,0,1,1.94,4.49c.79,1.78,1.68,3.51,2.44,5.3s1.46,3.88,2.26,5.8c.39.93,1,1.75,1.43,2.68,1.31,3,2.53,6.1,3.86,9.13,1,2.31,2.16,4.57,3.2,6.87s2.15,4.84,3.16,7.29a23.88,23.88,0,0,1,.73,2.54,2.65,2.65,0,0,0,.18.42c1.62,3,3.23,6,4.88,8.91.44.79,1,1.52,1.49,2.27.84,1.25,1.73,2.48,2.49,3.78a3.62,3.62,0,0,1,.14,1.48c.61-.2,1.28-.66,1.65-.48s.69,1,1,1.48a4.69,4.69,0,0,0,.38.74,1.75,1.75,0,0,1,0,2.36c-.61.9-1.11,1.89-1.7,2.81q-2.37,3.7-4.77,7.39c-.2.29-.39.72-.67.8-1.66.51-1.76,1.87-1.67,3.19.07.86-.39,1.16-.92,1.54-.24.17-.62.29-.7.51-.74,2.13-2.53,3.43-3.86,5.1A59.55,59.55,0,0,0,62,102.89c-1.47,2.3-2.87,4.64-4.46,6.84S54.22,114,52.46,116c-2,2.33-4.12,4.54-6.06,6.9-1.12,1.35-1.92,3-3,4.35-1.49,1.94-3.12,3.77-4.63,5.68a17.23,17.23,0,0,0-1.25,2.13,1.89,1.89,0,0,1-2.16,1,40,40,0,0,0-4.23-.33c-1.14,0-2.29,0-3.43.08-.74,0-1.48.18-2.23.24-2.15.17-4.31.28-6.47.49-1.82.18-3.62.53-5.45.69-1.26.11-2.55-.09-3.81,0-1.41.13-2.79.46-4.19.69a22,22,0,0,1-3.09.47c-1.24,0-1.94-1-2.4-1.95a2.33,2.33,0,0,1,.5-1.89c1.9-2.38,3.93-4.66,5.84-7,1.19-1.49,2.23-3.11,3.38-4.64.37-.48,1-.78,1.32-1.27,1.14-1.56,2.19-3.19,3.33-4.76,1.37-1.91,2.81-3.78,4.19-5.68.59-.82,1.08-1.72,1.66-2.55s1.26-1.77,1.95-2.62C23.09,105,24,104,24.86,103c2-2.42,4-4.81,5.94-7.27,1.7-2.15,3.29-4.39,4.94-6.57s3.32-4.3,5-6.45c1.33-1.71,2.64-3.43,4-5.11a18.13,18.13,0,0,1,2.08-2.21,2.32,2.32,0,0,0,.71-3.15c-.95-2.24-1.76-4.54-2.67-6.8-.69-1.72-1.4-3.43-2.16-5.12-1.5-3.31-3-6.63-4.59-9.88C36.8,47.77,35.3,45.25,34,42.67c-1.12-2.14-2.08-4.37-3.29-6.45a6.35,6.35,0,0,0-2.14-1.9,18.84,18.84,0,0,0-2.28-.87,1.11,1.11,0,0,1-.49-.69c-.32-1.13-.58-2.28-.87-3.42,0-.11-.11-.24-.08-.34.67-2.14-.77-3.71-1.5-5.46a8.53,8.53,0,0,0-.78-1.14c-.37-.62-.68-1.28-1.07-1.9-1.11-1.76-2.21-3.54-3.4-5.26-.48-.7-1.26-1.19-1.73-1.9a32.42,32.42,0,0,1-1.81-3.27c-.65-1.23-1.32-2.46-1.86-3.74a9.16,9.16,0,0,1-.51-2.23c-.08-.42,1.39-2,1.84-2.13s.85-.34,1.29-.44A22.77,22.77,0,0,1,18.89.8a38.36,38.36,0,0,1,7.24.47c2.3.31,4.59.71,6.89,1a19.18,19.18,0,0,0,2.62.24A5.5,5.5,0,0,0,37.07,2ZM43.88,114.3a2.71,2.71,0,0,0-1,.1c-.92.54-1.78,1.16-2.67,1.73a2.25,2.25,0,0,1-3,0c-1-.83-1.89.22-2.7.72-.31.19-.4.73-.52,1a19.15,19.15,0,0,1,4.17.71,1.72,1.72,0,0,0,2.09-.51c.83-.75,1.63-1.54,2.41-2.35.43-.43.79-.92,1.19-1.38a4.89,4.89,0,0,0,2.6-2.26C45.25,112.74,43.87,112.76,43.88,114.3Zm7.7-52.53a58,58,0,0,0-8-10.31c-.16.28-.23.5-.15.64,1.4,2.59,2.84,5.16,4.22,7.75.65,1.22,1.22,2.44,3,1.8C50.78,61.59,51,61.69,51.58,61.77ZM51.25,36.4a4.61,4.61,0,0,0,.48,1.32c.62.79,1.39,1.48,2,2.28,1.37,1.77,2.64,3.62,4,5.38a10.88,10.88,0,0,0,1.62,1.39l.16-.21q-2-4.41-4.07-8.83C53.83,38.43,52.9,36.52,51.25,36.4ZM62.68,88.46c-.59-.9-3.25-1.21-4-.32-1.48,1.64-2.91,3.33-4.5,5.16.41.13.85.44,1.13.34a14.58,14.58,0,0,0,3.44-1.59A52,52,0,0,0,62.68,88.46ZM22.9,125.78l.07-.34c-.18-.2-.49-.38-.52-.6a2.56,2.56,0,0,0-2.12-2.11,21.23,21.23,0,0,0-3.55-.6,1.53,1.53,0,0,0-1.06.61,10.37,10.37,0,0,0-.92,1.66C17.63,124.6,20.17,125.79,22.9,125.78ZM25.21,19.56c.22,1,2.12,4.7,2.65,4.72a21.71,21.71,0,0,0,3.49-.34s.1-.09.16-.13C30,21.48,28.54,19.19,25.21,19.56Zm20,64.38c-.51.54-1.06,1-1.52,1.63-1.28,1.63-2.54,3.27-3.76,4.94-.14.2-.09.83.07.92a3.48,3.48,0,0,0,4.59-1.23c-.34-.19-.69-.37-1-.59-.8-.55-.83-2,.06-2.32C45.24,86.74,45.3,85.46,45.2,83.94ZM23.61,130.88c-.06-.49,0-1-.17-1.12a9.74,9.74,0,0,0-2.93-1.25c-2.67-.4-5.36-.59-8-.84a1.81,1.81,0,0,0-.65.2c.15.17.26.42.46.51a5.05,5.05,0,0,0,1.23.45c2.11.44,4.22.86,6.32,1.28ZM49,80c.52.27.77.49,1,.51.9,0,1.81,0,2.71,0s1.68-.22,1.66-1.27-2-2.76-2.53-2.32A27.16,27.16,0,0,0,49,80Zm-28.79,36.3c.83.18,1.28.31,1.75.38a3.43,3.43,0,0,0,3.07-.8c.39-.39,1-.78.37-1.31A24.55,24.55,0,0,0,22.89,113C22,114.06,21.2,115.12,20.25,116.31ZM32.69,31.8c.11-.27.17-.35.16-.41-.41-1.8-.4-1.78,1.25-2.32a.84.84,0,0,0,.38-.73,2.77,2.77,0,0,0-2.88-1.51c-.26,0-.52,0-.78.09s-1,.13-1,.25a2.22,2.22,0,0,0,.23,1.3,24,24,0,0,0,1.63,2.16C32,31,32.32,31.36,32.69,31.8Zm1.19-11.49c.23.54.28,1,.52,1.18,2,1.15,4.07,2.41,6.7,1.68a29.45,29.45,0,0,0-4.53-2.81C35.89,20,34.94,20.31,33.88,20.31Zm1.38,16.82c.61,1.17,1.16,2.28,1.78,3.35a1.1,1.1,0,0,0,.83.52A16.58,16.58,0,0,0,40,40.37C40.21,38.79,37.31,36.54,35.26,37.13Zm5.63,7.2c0,1.08,0,2.26,1,2.84a9.78,9.78,0,0,1,3,2.79,6,6,0,0,0,1.65,1.11l.28-.37C44.73,48.73,43.55,45.89,40.89,44.33ZM24.69,12.72c-1.22-2.24-3.22-1.38-4.89-1.72l-.17.27,1.87,2.31ZM42.56,121l-.23-.24a14.46,14.46,0,0,0-1.39,1c-1,1-1.88,2-3,2.91-.91.73-1,1.47-.31,2.6Zm.75-15.53-.49-.5c-.38.51-.65,1.26-1.16,1.49a9.76,9.76,0,0,0-3.41,2.6c-.65.75-.67,1.19.06,1.89ZM30.78,130.32c.73,1.08,1.86,1.33,3.32.76a2.29,2.29,0,0,0,1.67-2.29Zm3.31-28.78c0,.29-.09.46,0,.51a24.85,24.85,0,0,0,2.18,2.06,1.19,1.19,0,0,0,1.13,0,5.43,5.43,0,0,0,.77-1.63c0-.07-.24-.35-.39-.38C36.53,101.89,35.32,101.72,34.09,101.54ZM54.66,87.35l3.38-4c-1.17,0-2.61-.11-3.06.51S54.74,85.93,54.66,87.35ZM59,81.8a21,21,0,0,0,2.11-2.49c.2-.31-.06-1-.25-1.46a.93.93,0,0,0-.85-.16C59,78.22,58.42,80.31,59,81.8ZM35.37,122.55c-.29-.15-.45-.31-.55-.28-1.53.47-3.06.93-4.55,1.5-.13.06-.11,1.14.06,1.2a1.93,1.93,0,0,0,1.49,0C33,124.3,34.1,123.45,35.37,122.55ZM57.78,60.63l-.59,0c-.09.57-.2,1.13-.28,1.69a4,4,0,0,1-.21,1.33c-.64,1.11-.68,1.1.66,1.35.59.12,1.18.18,1.78.27l.19-.24A4.45,4.45,0,0,1,57.78,60.63ZM34.1,9.2c-1.31-.44-2.38-.82-3.47-1.13a1.16,1.16,0,0,0-.82.21,1.87,1.87,0,0,0,.24,1.18C30.63,10.05,33,10,34.1,9.2Zm16.32,94.11.26.27c.19-.1.4-.31.58-.29,1.79.27,2.46-1.3,3.55-2.16.17-.14.18-.46.27-.7-.23,0-.51-.07-.69,0-1,.56-2,1.13-2.9,1.76A7.36,7.36,0,0,0,50.42,103.31ZM47.94,28.14c.33,3.07,1.78,4.93,3.85,4.76ZM44.65,12.23c-.95.75.49,4.37,2,5C46.81,16.09,46.76,16,44.65,12.23ZM42,97.33l0,.17a5.45,5.45,0,0,0-.7,0c-.23,0-.45.15-.68.2-1.18.25-1.32.65-.56,1.61.55.71,1.06.87,1.6,0,.19-.33.57-.54.8-.86a4.09,4.09,0,0,0,.41-.87ZM69.17,79l.37.48c1.1-.89,2.22-1.77,3.3-2.7.12-.11,0-.51,0-.77-.33,0-.76,0-1,.17C70.93,77.12,70.06,78.1,69.17,79ZM27.08,111.39l-.34.21a3.32,3.32,0,0,0,.62,1,5.72,5.72,0,0,0,1.45.7c.31.13.74.33,1,.21a1,1,0,0,0,.35-.9,1.27,1.27,0,0,0-.75-.72C28.62,111.66,27.85,111.55,27.08,111.39Zm31.13-13.6c.57,1.3,1.25,1.52,1.88.66s1-1.49,1.44-2.23l-.2-.3Zm-25.79,7.63c-.11-.68-1.51-2.11-2-2s-.78.62-1.16,1c.32.25.61.64,1,.73A15.56,15.56,0,0,0,32.42,105.42ZM43.57,25.33l-2,1.19,2.77,2.08.26-.21Zm12.51,43c.3,1.81,1.27,2.58,2.68,2.34a2.22,2.22,0,0,0,.67-.37c-.14-.21-.23-.52-.43-.62C58.1,69.25,57.18,68.85,56.08,68.35ZM68.42,83.74c-.9.63-2.1.71-2.62,1.94C67.57,85.86,68.51,85.16,68.42,83.74ZM64,61.36l-.64-.1c-.15.42-.53,1.12-.41,1.21a7.38,7.38,0,0,0,1.63.84Zm-53.26,71c-.39-.36-.67-.77-1.05-.92a1.14,1.14,0,0,0-1,.34c-.19.2-.14.63-.2,1a4.61,4.61,0,0,0,.91,0C9.79,132.67,10.16,132.53,10.71,132.37ZM50.18,85l-.1-.51c-.49,0-1.23-.19-1.4,0s-.06,1-.06,1.47l.35.11ZM51,70.62l-.12.53,2.76.46C53,70.24,51.88,71,51,70.62Zm1.13,38.69.44.34,1.65-2.31L53.8,107ZM37.3,31.89l-.54.53,1.33,1.25.47-.49Z"/></svg>