<svg id="Ebene_1" data-name="Ebene 1" xmlns="http://www.w3.org/2000/svg" width="78.64" height="140.71" viewBox="0 0 78.64 140.71"><path d="M67.93,2.69a1.17,1.17,0,0,1,1.82.5,1.61,1.61,0,0,1-.41,2.09c-.88.75-1.67,1.59-2.5,2.4a3.22,3.22,0,0,0-.54.63C65,10.52,63.7,12.75,62.4,15c-.6,1-1.15,2.07-1.83,3-1.26,1.81-2.61,3.56-3.89,5.36-2.17,3-4.28,6.14-6.47,9.17-1,1.35-2.09,2.57-3.09,3.89q-3,3.93-5.86,7.91c-1.5,2-2.94,4.15-4.45,6.19-1.11,1.51-2.29,3-3.45,4.45-1.48,1.89-3,3.77-4.46,5.67a1.07,1.07,0,0,0-.21.74,12.2,12.2,0,0,0,.8,2.55c.94,1.88,2,3.68,3,5.53,1.23,2.33,2.32,4.73,3.61,7a62,62,0,0,0,3.48,5.3c1,1.48,2.34,2.8,3.32,4.32a45.87,45.87,0,0,1,4,7c1.66,4,4.37,7.32,7,10.73,1.08,1.43,2,2.95,3,4.46,1.08,1.69,2.12,3.41,3.13,5.14a64.77,64.77,0,0,0,5.33,7.42c1.62,2,2.9,4.34,4.39,6.48.65.93,1.47,1.72,2.16,2.61s1.52,2.1,2.3,3.13c.66.88,1,1.93,2.58,1.88s2.15,1.1,1.8,2.74a3.67,3.67,0,0,1-2,2.9,1.24,1.24,0,0,1-.64.16c-1.07-.18-2.13-.43-3.2-.57a5.59,5.59,0,0,0-1.58.07,9,9,0,0,1-4.31-.6,17.32,17.32,0,0,0-4.29-.36c-1.82-.11-3.64-.22-5.45-.3s-3.76-.18-5.64-.19c-1.24,0-2.49.12-3.73.24a2.76,2.76,0,0,0-1.45.4c-1.54,1.26-2.88.59-3.73-1.06-1.87-3.64-3.69-7.32-5.66-10.91-1.49-2.72-3.22-5.32-4.74-8-.57-1-.78-2.19-1.27-3.23-1.83-3.86-3.64-7.74-5.59-11.54-1-2-2.29-3.8-3.43-5.71-.52-.88-.94-1.82-1.47-2.69-.8-1.31-1.71-2.55-2.47-3.88-1.43-2.5-2.79-5-4.17-7.56-.5-.93-.91-1.92-1.47-2.82S11,80.39,10.47,79.54c-.67-1-1.13-2.19-1.85-3.18-1.46-2-3-3.89-4.56-5.83,0-.06-.12-.12-.16-.18C2.64,68.43,1.36,66.52.15,64.57a1.43,1.43,0,0,1,0-1.23c1.1-1.84,2.23-3.65,3.44-5.41C4.29,56.89,5.24,56,6,55c1.49-2.12,2.88-4.31,4.38-6.42.91-1.28,2-2.44,2.89-3.73,1.4-2,2.67-4.06,4-6.07.95-1.4,2-2.71,2.95-4.12,1.06-1.59,2-3.3,3-4.87.88-1.28,1.94-2.44,2.93-3.64,1.51-1.81,3-3.59,4.53-5.4s2.85-3.4,4.19-5.17c1.49-2,2.88-4,4.31-6s3-4.18,4.46-6.25c.64-.9,1.42-1.71,2-2.65S47.19.05,48,.17c.45.06.89.24,1.34.31q1.37.23,2.76.39a6.44,6.44,0,0,0,1.8.08c2.31-.38,4.47.3,6.64.88a3.67,3.67,0,0,0,1.1,0c.58,0,1.28-.32,1.73-.1,1.15.55,2.24,0,3.34.09A6.63,6.63,0,0,1,68,2.24ZM21,83.14C21,84.77,22.23,85.4,23,86c2.26,1.76,4.54,3.62,7.5,4.14a1.18,1.18,0,0,0,.92-.14c.15-.14.12-.61,0-.88-.58-1.4-1.22-2.79-1.81-4.19a2.17,2.17,0,0,0-2.24-1.41c-.7,0-1.4-.12-2.11-.17Zm16.51,29c2.85,2.85,5.59,5.73,9.57,7a9.44,9.44,0,0,0-1.65-2.47c-1.56-1.59-3.14-3.17-4.81-4.64A2.05,2.05,0,0,0,37.53,112.11ZM26.07,92.72a3.48,3.48,0,0,0,.13.55c.61,1.45,2,2.07,3.23,2.71A25.37,25.37,0,0,0,34,97.5c.17,0,.58-.23.65-.43a2.49,2.49,0,0,0-1.31-2.26C31,94.11,28.54,93.43,26.07,92.72Zm20-61.22-.26-.33a20.65,20.65,0,0,0-4.13,1.27,20.19,20.19,0,0,0-3.31,2.72l.23.25c2.48-.55,2.48-.55,3.68,1.24Zm-17,45.44v-.36a4,4,0,0,0-3-.16c-1.15.27-2.23.63-3.12-.53a1.34,1.34,0,0,0-.58-.41c-.91-.35-1.85-.89-3.07.28C21.16,76.9,22.84,78,24.58,79c.19.12.87-.19,1-.46A2,2,0,0,1,28,77.14,3.6,3.6,0,0,0,29.07,76.94Zm3.2,24.44c.08,1.16,2.4,3.79,3.51,3.87a1.55,1.55,0,0,0,.84-.27c.47-.29.91-.64,1.45-1-.06-.78,0-1.73-1.25-1.9C35.32,101.85,33.82,101.61,32.27,101.38Zm18.21,4.45-.59.15c.07.41,0,.91.24,1.19A17.3,17.3,0,0,1,52,110c.57,1.13,1.45,2.1,2.14,3.18,1,1.55,1.87,3.16,2.87,4.7a8.43,8.43,0,0,0,1.21,1.26l.38-.3ZM36.78,30.21l-.54-.4c-.6.68-1.57,1.28-1.7,2-.17,1-.46,1.48-1.38,1.67l-1.24.24c-.85.17-1.67.38-2,1.32.6.38,1.17.72,1.73,1.09a1.07,1.07,0,0,0,1.74-.43c.48-.81,1-1.57,1.53-2.37C35.56,32.33,36.16,31.26,36.78,30.21Zm-2.31-7.63-.38-.21-3.62,4.42a10.87,10.87,0,0,0,5.29-.11C34.42,25.54,33.82,24.26,34.47,22.58Zm-3.35,29.1-.26-.25c-.47.33-1,.62-1.4,1C28,53.67,27,55.61,24.93,56.13c-.22,0-.37.41-.55.63a5.6,5.6,0,0,0,1.41,1c.26.09.78-.25,1-.53.75-.87,1.43-1.81,2.14-2.72ZM48.94,10.74c0-1.56-1.26-1.54-2-2a2.38,2.38,0,0,0-3,.6,1.1,1.1,0,0,0-.27.84c.08.19.5.3.78.36a7.35,7.35,0,0,0,1.39.18C46.83,10.75,47.88,10.74,48.94,10.74Zm-7.74,115c.34,2.32.67,3.91,5.22,3.8a5.2,5.2,0,0,0-.79-1.08c-1-.73-2-1.41-3-2.08A13.15,13.15,0,0,0,41.2,125.7ZM54,20.46l.15.05c1.43-1.86,2.86-3.71,4.27-5.59.11-.14.13-.52,0-.59a.92.92,0,0,0-.73-.22,9.18,9.18,0,0,0-2.17,1.15c-.23.18-.06.84-.11,1.28a2.34,2.34,0,0,1-.22.55C54.82,18.21,54.41,19.34,54,20.46ZM29.58,103.29c-.11.37-.21.5-.17.58.85,1.94,1.69,3.87,2.59,5.79a.79.79,0,0,0,.74.22,1.74,1.74,0,0,0,.1-2.65c-.76-.79-1.5-1.6-2.21-2.43C30.27,104.38,30,103.9,29.58,103.29ZM5.58,62.1a1.51,1.51,0,0,0-.28,2.14c.74,1.33,1.4,2.7,2.12,4a5,5,0,0,0,.66.82L8.36,69a7.15,7.15,0,0,0-.18-1.4,15,15,0,0,0-.84-2C6.76,64.44,7.66,62.64,5.58,62.1Zm7.33-10.5-2,2.89c2.14.5,3.24.08,4-1.56.07-.14-.23-.57-.45-.69A13.47,13.47,0,0,0,12.91,51.6ZM51.05,24c-1.79.52-4.62,3.19-4.48,4.23C48.94,27.67,51.33,25.41,51.05,24ZM23.34,60.63a18.7,18.7,0,0,0-.58,3.47,2.63,2.63,0,0,0,1.08,1.61,4.51,4.51,0,0,0,1.67.42ZM15,66.06l-.25.34c.43.9.81,1.83,1.3,2.7a1.27,1.27,0,0,0,.81.4c.41-.54,1-1.13,1-1.73s-.62-1.1-1.12-1.4A5.26,5.26,0,0,0,15,66.06Zm9.59-16.25c-1-.13-3.85,1.81-4.27,2.84a4.4,4.4,0,0,0,1.21.67,1.4,1.4,0,0,0,1.18-.3C23.36,52,23.91,51,24.56,49.81Zm-7.17,28c.14,1.21.26,2.28-1.16,2.54a1.15,1.15,0,0,0,0,.76,2.53,2.53,0,0,0,.48.62l3.15-2.11A2.94,2.94,0,0,0,17.39,77.8ZM47.83,13.68V14L50,15.1c.89.44,1.47-.1,2-.68a1,1,0,0,0,.14-.91,1.26,1.26,0,0,0-.91-.34,18.61,18.61,0,0,0-2.11.21C48.69,13.45,48.26,13.58,47.83,13.68ZM38.55,117.29l-3.91-3.5a1.94,1.94,0,0,0,.06,1.2C35.7,117.76,36.06,118,38.55,117.29Zm3.86-95.71-.12-.36c-.3,0-.68-.16-.9,0-1.06.6-2.1,1.25-3.1,1.95-.25.19-.31.65-.46,1,.37,0,.86.26,1.09.1C40.12,23.38,41.26,22.46,42.41,21.58ZM56.86,130a3.18,3.18,0,0,0-3-1.77c-.57,0-1.14-.11-1.71-.1a2.26,2.26,0,0,0-.76.28c.15.2.28.53.47.57C53.45,129.3,55,129.6,56.86,130Zm5.62-3.43c.49-.29.82-.37.88-.54a1.09,1.09,0,0,0,0-.89c-.89-1.18-1.84-2.32-2.8-3.44-.1-.12-.4-.08-.61-.11,0,.18-.09.52,0,.53,1.33.5,1.07,1.81,1.49,2.77A11.1,11.1,0,0,0,62.48,126.54ZM34.3,44.7l.34.21c.58-.61,1.17-1.21,1.73-1.84a3.16,3.16,0,0,0,.39-.7,2.19,2.19,0,0,0-.87-.18c-.64.15-1.26.4-2,.65ZM21.84,39c2.15-.22,1.85-2,2.61-3,.1-.12-.15-.52-.33-1.1Zm6.78-7.22.1.23c.23-.17.55-.3.65-.52s-.19-.47-.37-.64c-.67-.62-1.38-.9-2.06,0a3.82,3.82,0,0,0-.37.76,3.22,3.22,0,0,0,.83.27A10.16,10.16,0,0,0,28.62,31.76ZM21.75,91.17c1-1,.47-2-1.88-2.94Zm7.78-50c-.86.07-1.85-.71-2.36.49-.1.25.38,1.06.64,1.08C28.79,42.87,29.22,42.12,29.53,41.21Zm.1-3v-.49l-2.25-.11c0,.36-.08.93.1,1A1.71,1.71,0,0,0,29.63,38.21ZM56.71,8.79l.46.52,1.68-.86-1.31-1Zm-43.82,64L12.63,70C11.4,70.29,11.42,71.2,12.89,72.78ZM26,98.27l1.6,3.26C27.92,99.83,27.36,98.66,26,98.27ZM23.14,45.44l.21.49L26,45.19l-.11-.4A4.47,4.47,0,0,0,23.14,45.44Zm-4.42,3.9-2,.85c.15.21.28.57.47.6C18,50.93,18.41,50.48,18.72,49.34Zm15.85-28,.17.11c.53-.27,1.08-.52,1.58-.84.21-.13.31-.43.45-.65-.29,0-.71-.21-.87-.07A15.35,15.35,0,0,0,34.57,21.33Z"/></svg>