<svg xmlns="http://www.w3.org/2000/svg" width="215" height="400" viewBox="0 0 215 400"><path d="M175.05,113.12a16.58,16.58,0,0,1-.05,4c-.93,4.11-2.08,8.18-3.18,12.25s-2.07,8-3.36,12c-2,6-4.25,12-6.21,18-2.17,6.73-4.13,13.52-6.18,20.28-1.41,4.65-2.87,9.28-4.2,14-3,10.4-5.68,20.87-8.82,31.21-2,6.51-4.6,12.82-6.82,19.26-2,5.7-3.61,11.5-5.66,17.17-2.14,5.89-4.69,11.62-6.88,17.49s-4.34,12.08-6.36,18.17c-1.6,4.8-2.88,9.72-4.52,14.51-1.46,4.28-3.35,8.42-4.8,12.7-.71,2.1-1.84,2.52-3.87,2.4s-2.63-1.37-3-3c-.06-.23-.13-.46-.1-.36-1.1.43-2.74,1.52-3.18,1.16-1.39-1.14-2.91-2.68-3.34-4.33-1.64-6.34-3-12.75-4.2-19.19-.8-4.24-1.08-8.58-1.69-12.86-.76-5.27-1.48-10.56-2.52-15.77-.49-2.43-1.85-4.66-2.59-7.05-1-3.43-1.77-7-2.88-10.37-2.14-6.54-3.34-13.37-6.61-19.54a55.64,55.64,0,0,1-5.54-18.1c-.6-3.87-2.09-7.59-3-11.43-.61-2.68-.69-5.48-1.3-8.17-1.06-4.65-2.33-9.26-3.53-13.88-.56-2.13-1.13-4.26-1.78-6.36-1.25-4-2.61-8-3.82-12.1-1.3-4.34-2.45-8.73-3.74-13.08-.5-1.69-1.23-3.31-1.76-5-1.51-4.79-2.94-9.61-4.45-14.41a107.13,107.13,0,0,0-3.55-10.74c-1-2.44.14-3.44,1.83-4.23a13.51,13.51,0,0,1,3.54-.55c2.16-.32,4.46-.3,6.45-1.07,4.35-1.69,8.67-1.56,13.18-1.09,4,.41,8.07.21,12.1.38a37.09,37.09,0,0,1,4.68.65c2.45.43,4.4-.53,6.26-2a1.88,1.88,0,0,1,1.8,0c1.12,1.37,2.42,1.44,4.07,1.39,4.48-.13,9-.28,13.46-.39,6.57-.17,13.14,0,19.7-.11,2.75-.07,5.51.32,8.27.41,1.65,0,2.86-.31,3.59-2.3.84-2.27,3.36-2.86,5.51-2.85a70.44,70.44,0,0,1,10.34.92c2.28.35,4.33.38,6.09-1.29,1.56-1.48,2.55-1.15,3.2.85.15.48.51,1.18.88,1.25C169,112.3,171.54,112.62,175.05,113.12ZM91.51,190.41a12.17,12.17,0,0,0,2.58,7.5l.65-.26-3.28-7.2L90,184.59C88.71,187.38,89.34,189.16,91.51,190.41Zm65.82-36.09c-.85.79-2.14,1.48-2.61,2.53a98.37,98.37,0,0,0-3.92,10.2c-.89,2.78-1.3,5.71-2.08,8.53s-1.9,5.58-2.68,8.41c-2.93,10.65-5.64,21.35-8.71,31.95-2.61,9-5.6,17.91-8.43,26.86-1.1,3.49-2.15,7-3.35,10.44-.69,2-1.73,3.86-2.44,5.85-.91,2.61-1.66,5.27-2.47,7.91l.8.28a10.41,10.41,0,0,0,.88-1.56c1.87-4.89,3.76-9.78,5.53-14.71,2.12-5.9,4.16-11.84,6.19-17.78,1.8-5.24,3.67-10.47,5.26-15.78,1.64-5.47,2.9-11.06,4.46-16.55,2.29-8,4.72-16,7.05-24C153,169.45,155.12,162,157.33,154.32Zm-80.22-4c3.77-1.57,4.48-1.25,5.81,1.58a1.9,1.9,0,0,0,1.79.43c1-.8,1.55-2,2.51-2.82,4.57-3.75,4.76-8.34,2.32-13.17-1.47-2.89-.23-5,1.25-7.13a21.24,21.24,0,0,1,3.43-3.18c-3.84-2.83-7.63-.26-8.9,3.24-1.33,3.68-3,7.24-4.41,10.88C79.66,143.36,78.51,146.59,77.11,150.35Zm50.39,49.1-.76-.51c-1.2.62-3,.93-3.49,1.91a25.31,25.31,0,0,0-2.06,6.45c-.84,3.77-1.3,7.62-2.26,11.35-1.46,5.64-.85,8.54,3.11,11.62C125.81,220.26,126.92,209.9,127.5,199.45Zm-48,30.07c-4.67-26.58-10.82-52.73-21.24-77.74a2.7,2.7,0,0,0-.14,1.59c1,2.62,2.19,5.16,3,7.83,1.32,4.25,2.39,8.57,3.56,12.86.22.81.35,1.65.61,2.44,1,3.16,2.8,6.27,3,9.48.3,4.44,1.83,8.49,2.58,12.76.51,2.88.45,5.88,1.13,8.7,1.15,4.79,2.71,9.47,4.05,14.2.35,1.24.91,2.59.69,3.77C76.3,227.8,78,228.51,79.46,229.52Zm-.86-48.6-.54.18a10,10,0,0,0,0,2.05c.54,2.6,1.14,5.18,1.76,7.76,1,4,2.06,8,2.93,12.08,1,4.56,1.8,9.16,2.66,13.75a2.48,2.48,0,0,0,3,2.16c1.93-.28,1.15-1.91,1-3-.5-2.94-1.09-5.87-1.67-8.8-.93-4.62-1.58-9.32-2.92-13.82-.92-3.08-2.79-5.89-4.27-8.81C79.93,183.24,79.25,182.09,78.6,180.92Zm22.05,93.44.36-.05a12.43,12.43,0,0,0,0-2.59,46,46,0,0,1-1.39-12.85,9.25,9.25,0,0,0-.44-3.26c-1-3.13-2.07-6.26-3.27-9.32s-2.45-5.78-3.81-8.61a10.43,10.43,0,0,0-1.86-2.1l-.75.54c.66,2.2,1.47,4.37,2,6.62,1.67,7.54,3.22,15.12,4.84,22.68a2.76,2.76,0,0,0,.53,1,21,21,0,0,1,2.72,3.52A22.23,22.23,0,0,1,100.65,274.36Zm44.7-130.71c-2.31-1.07-4.16-2-6.09-2.8-3.52-1.42-7.14-2.59-10.59-4.16-1.78-.81-3.12-.87-4.24.74a3.66,3.66,0,0,0,.93,4.86,64,64,0,0,1,5.46,3.65,2.07,2.07,0,0,0,3.17,0c1.67-1.69,3.46-1.39,5.44-.88A6.22,6.22,0,0,0,145.35,143.65Zm-40.24,63.5h.81v-5.36c0-6.13,0-12.26.12-18.38.08-3.87-.4-4.68-4-5.32C101.74,188,102,197.69,105.11,207.15Zm63.21-87.37-1.24-.42c-1.39,3.13-3,6.19-4.13,9.4-1.81,5-3.34,10.18-5,15.29-.11.36-.06,1.1.06,1.14,2.15.6,1.4,2.38,2,3.88Q164.18,134.42,168.32,119.78ZM68.08,143.93l2.83,10.29L77,135.81C74.2,138.33,71.31,141,68.08,143.93Zm41.83,24.45h.81a10.85,10.85,0,0,0,.37-2.16c-.1-4.63-.51-9.27-.31-13.88.14-3.1-1.72-4.73-3.41-6.69C108,153.28,108,161,109.91,168.38Zm-6.45-9c.16-.5.4-.86.36-1.19-.58-4.37-1.14-8.74-1.84-13.09-.12-.69-.86-1.28-1.32-1.92-.51.63-1.39,1.22-1.47,1.9a38.33,38.33,0,0,0-.07,5.57A10.93,10.93,0,0,0,103.46,159.34Zm-54-35.69,1.89,8.27c1.25-1.09,2-2.26,3.06-2.54s2.27.32,3.43.54C57.38,124.18,55.47,122.6,49.45,123.65Zm87.33,6.71-.34.76c1.53,1.61,4,2.37,4.42,5a1,1,0,0,0,.47.52l7.52,3.71c0-2,.08-3.57-.07-5.14,0-.32-1.07-.92-1.4-.79-3.32,1.29-5.51-.92-7.95-2.39C138.54,131.47,137.66,130.91,136.78,130.36ZM97.06,222.54c2.17-.57,2.62-1.78,1.72-3.59-1.85-3.69-3.7-7.39-5.85-11.7A29.83,29.83,0,0,0,97.06,222.54ZM90.56,169c-.49-3-.9-5.76-1.43-8.5-.33-1.73-.91-3.38,1.12-4.57.33-.19.23-1.12.42-2.29-.77.82-1.06,1.38-1.5,1.55-2.43.95-2.88,2.6-2.07,4.94.35,1,.19,2.22.53,3.25C88.27,165.31,87.41,168,90.56,169Zm15.19,82.66c0-2.45,0-4.9,0-7.34,0-.26-.5-.55-.81-.76-.88-.57-1.78-1.11-3-1.87C101.6,245.64,105.52,248.08,105.75,251.68ZM101.87,131a4.11,4.11,0,0,0-5.11.87c-.67.66-.83,1.85-1.32,3C98.81,134.82,100.84,133.74,101.87,131Zm23.31,62.71c2.75-.68,3.93-3.85,2.72-7.35C124.7,189.18,124.49,189.76,125.18,193.68Zm-56-71.35a38.25,38.25,0,0,0-5,.07c-.64.09-1.74,1-1.66,1.35a3.22,3.22,0,0,0,1.5,2.06C66.75,127,67.34,124.37,69.14,122.33Zm48.26,48.52.77.16a44.08,44.08,0,0,0,3.54-4.93c.39-.72-.14-1.94-.26-2.93-.68.48-1.71.81-2,1.45C118.62,166.62,118.07,168.76,117.4,170.85Zm-13.82,1.9c1.25-1.76-.55-5.2-3.43-6.6C99.94,169,100.27,171.53,103.58,172.75Zm2.53,84.7c-.66,2.39-1.55,4.19-1.54,6s.94,3.49,1.47,5.23C106.26,265.19,106.9,261.59,106.11,257.45Zm-.94-122.65.16.7a19.67,19.67,0,0,0,3.26-.05,2.67,2.67,0,0,0,1.66-1.12,1.63,1.63,0,0,0-.52-1.5,2.87,2.87,0,0,0-2.18-.12A13.27,13.27,0,0,0,105.17,134.8ZM91.23,229.22c.43-3-.31-3.87-3.45-3.87v2.81Zm32.88-54.65-.8-.31-3,9.07,1.2.39C122.36,180.67,123.23,177.62,124.11,174.57Zm-5.91-28.78c-1.42,3.39-1,4.88,1.84,6.12ZM108.1,296.31l-.51,7.68C108.59,301.51,110.74,299.17,108.1,296.31ZM136,161.5l-.93-.15-1.18,6.88.86.15C135.21,166.09,135.62,163.8,136,161.5Z"/><path d="M78.69,21.19c1.6-1.81,3.17-3.55,4.7-5.31,1.81-2.09,3.49-4.31,5.44-6.26a16.18,16.18,0,0,1,4.66-3.41,83.3,83.3,0,0,1,11.35-4.32,32.68,32.68,0,0,1,8.61-1,99.12,99.12,0,0,1,15.13.58,31.33,31.33,0,0,1,14,5.79c6.12,4.52,9.55,10.92,13,17.45,1.81,3.43,1.53,7.12,2.65,10.6a55.59,55.59,0,0,1,2,10.52c1.15,9.55-.44,18.9-3,28-1.06,3.79-3.53,7.19-5.41,10.74-.85,1.6-2,3.06-2.74,4.69-1.85,4-5.19,5.91-8.93,7.84-6.14,3.17-12.77,3.84-19.35,4.51a40.56,40.56,0,0,1-19.58-2.85c-2.61-1.07-5.54-1.51-7.91-2.93-3.28-2-6.79-3.45-9.63-6.38A34.61,34.61,0,0,1,76.56,78.9c-1.29-3-2.46-6.09-3.67-9.14a32.64,32.64,0,0,1-1.7-4.6A36.32,36.32,0,0,1,69.81,57c0-5.78-2-11.58.49-17.39a34.9,34.9,0,0,0,2.35-9.38,15.48,15.48,0,0,0-.8-6.27,3,3,0,0,1,1.5-3.93c1.46-.82,3.18-1.79,4.49.4C78,20.71,78.3,20.86,78.69,21.19Zm46.83,65.89c2.58-2.49,1.41-5.93-5.23-15.92-2,3-4.42-.6-7,.61,1.5,2.18,2.92,4.14,4.23,6.19.4.62.89,1.62.65,2.15-.74,1.66.24,2.65,1.26,3.36C121.29,84.79,123.38,85.85,125.52,87.08Zm-11.37-35c-.73.13-1.35.21-2,.37a39.81,39.81,0,0,0-5.65,1.63c-2.7,1.2-2.77,4-.35,6.79,2.8,3.23,4.1,3.33,6.77.51-2.13-3.14-2-4,1-6.17C115.29,54.23,115.09,53.25,114.15,52.05Zm29-24.62q1.56,7.57,3.12,15.16c.35,1.69.4,3.55,1.19,5,1.37,2.52.35,4.89.16,7.31-.22,2.86-.64,5.71-.93,8.56,0,.12.34.27.84.65C149.61,51.28,150.13,38.92,143.15,27.43ZM131.77,93c5,.42,14.3-9.75,13.36-14.08-1.22,1.38-2.35,2.87-3.7,4.14-2.72,2.57-5.59,5-8.33,7.55A9.64,9.64,0,0,0,131.77,93Zm-3.26-63.82-.64.28c.15,2.74.18,5.5.5,8.22a23.79,23.79,0,0,0,1.37,5.65c.22.6,1.69,1.33,2.13,1.1.73-.37,1.71-1.68,1.52-2.23C131.91,37.79,130.17,33.49,128.51,29.16Zm-22.79,20c1.13,0,2,.28,2.51,0,1.15-.83,3.87-.34,3.27-2.57-.67-2.52-1.55-5.21-4.14-6.91Zm-29,4.1c-1.26,2.86-.93,3.5,2.33,4.56,1.15.38,2.09.29,2.33-1,.2-1.07.34-2.25-1.36-2.49A20.35,20.35,0,0,1,76.74,53.26ZM90.68,83.08l.77-.66-7.76-8.76-.68.56C85.1,77.56,86.69,81.29,90.68,83.08Zm21.9-75.46c-1.92.29-3.47.44-5,.8-.31.07-.67,1.26-.61,1.31,1.32.85,2.7,1.6,4.28,2.5ZM84.09,34.84l.78-.08c2.14-3.44,1.23-5-1.82-6.8ZM132.39,83l1,.2c.41-1,1.43-2.3,1.11-2.91-.7-1.36-2.06-2.38-3.16-3.53l-.3.49C131.46,79.12,131.92,81,132.39,83Zm-31-6.24c.27,1,.24,2.13.73,2.46a34.43,34.43,0,0,0,4.41,2.23C106.55,79.31,104.55,77.21,101.43,76.71ZM89.71,60.6c-.13,3.16.83,4.7,3.23,5.16C92.4,63.7,92.83,61.23,89.71,60.6Zm2.36-17.41c2.79-1.23,2.49-2.78-.88-5.92C91.52,39.51,91.77,41.18,92.07,43.19Zm25-12.37.95-.28-1.89-7.16-1,.26C115.77,26,116.4,28.43,117,30.82ZM110.67,94l.46-.78c-1.08-.81-2.14-1.64-3.26-2.39a4.53,4.53,0,0,0-1.35-.42c.09.54,0,1.38.3,1.58A41.32,41.32,0,0,0,110.67,94Zm8.46-59.74a16.5,16.5,0,0,0,.6,2.75,8.74,8.74,0,0,0,1.14,1.59c.28-.21.77-.39.81-.64a3,3,0,0,0-.09-1.93A11.3,11.3,0,0,0,119.13,34.29Zm-18.74-19-.75-.14-.74,4C102.31,18.19,100.74,16.6,100.39,15.24Z"/><path d="M198.83,207.39l-5.1.86c0,.48.13,1.28.12,2.09,0,2.19,1,4.48-.48,6.56-.62.9-1.36,2.52-1.93,2.48a6.55,6.55,0,0,1-3.61-1.72c-3.42-3.25-4.54-8-7-11.87a217.77,217.77,0,0,1-13.35-25.18c-2.23-4.78-3.46-10.07-4.79-15.22a10,10,0,0,1,.58-5.27c.76-2.3,2.49-2.9,4.9-2.21a6.33,6.33,0,0,0,2.77.36c1-.44,2-.81,3-1.34a7.46,7.46,0,0,0,1.39-1.31c1.19-1.22,2.14-2.53,4.28-1.16.88.56,2.54-.21,3.85-.2,1.05,0,2.53-.09,3.06.52,3.08,3.55,5.87,7.34,8.87,10.95a66.25,66.25,0,0,1,9.47,15.86A95.69,95.69,0,0,1,209.09,192c1.77,5.7,3.33,11.49,4.61,17.32a25.63,25.63,0,0,1,.14,7.68c-.2,2.27-2.73,2.86-4.71,1.17a52.79,52.79,0,0,1-4.22-4.11C202.77,211.78,200.69,209.44,198.83,207.39Zm-28.51-43.1c-.28,1.08-.44,1.35-.38,1.53,1.05,3.05,1,6.55,3.75,8.91a2.57,2.57,0,0,1,.56,1.2,43,43,0,0,0,1.92,6.14c2.39,4.89,5,9.67,7.59,14.45a27.41,27.41,0,0,0,2.37,3.24l.63-.51c-.74-1.52-1.42-3.08-2.22-4.57-2.56-4.76-5.45-9.36-7.67-14.27-2-4.4-3.26-9.12-4.91-13.68A15.29,15.29,0,0,0,170.32,164.29Zm22.89,10.84-1,.33c1.22,4.84,4,9,5.87,13.55l1-.41Q196.11,181.87,193.21,175.13Z"/><path d="M46.93,166.52a40,40,0,0,0-.94,4.33c-.52,5.5-.88,11-1.47,16.51a39.81,39.81,0,0,1-1.37,4.87c-1.26,5.3-2.81,10.62-6,15-3.38,4.62-7.55,8.68-11.61,12.75-1.84,1.85-3.9,3.71-6.93,3.71-.64,0-1.35,1-1.9,1.6-3,3.38-5.88,6.84-8.88,10.21-2.46,2.76-3.4,2.91-6,.7A3.23,3.23,0,0,1,1,233.44c.74-2.61,2-5.08,2.72-7.69.31-1.05-.34-2.35-.14-3.46.88-4.62.37-9.51,2.72-13.83,2.06-3.77,2.9-8,5.92-11.47s4.88-7.93,7.56-11.74c2.07-2.93,4.66-5.48,6.94-8.27,1.79-2.18,3.19-4.78,5.28-6.59,2.3-2,5.23-3.25,7.84-4.88,1.41-.89,2.62-2.6,4.55-1.33A19.75,19.75,0,0,1,46.93,166.52Z"/><path d="M120.08,340.06a28.67,28.67,0,0,1,2.32-5.33c1-1.4,2.77-.59,3.57.91,1.19,2.23,3,4.15,4.09,6.42a26.06,26.06,0,0,1,2.44,7.25c.85,5.44,1.39,10.93,1.88,16.42.11,1.26-.57,2.58-.77,3.89-.53,3.41-.93,6.85-1.5,10.25-.39,2.31-.57,4.81-1.61,6.82-.94,1.81-2.82,3.23-4.49,4.54-1.94,1.52-3.42,1.15-5.59-.6-1.54-1.25-5.11-1.12-7.22-.26-2.87,1.18-4.53,1-6.32-1.75-2.7-4.11-2.77-8.82-2.86-13.45a80.46,80.46,0,0,1,.5-12.62c.8-5.69,2.1-11.31,3.34-16.93a4,4,0,0,1,2.92-3c1.19-.42,1.8-2.47,2.7-3.77a11.31,11.31,0,0,1,1.69-2.22,2.46,2.46,0,0,1,4,1.06C119.56,338.6,119.88,339.54,120.08,340.06Zm-7.91,44c-.67-9.59-2.15-18.91-.81-28.28C108.49,359.71,108.82,381.87,112.17,384.08Zm3.41-15.27H117l.66-18.12-.91,0Q116.15,359.73,115.58,368.81Z"/><path d="M68.43,371.36c.29-2.32.72-5.61,1.08-8.9.11-1-.05-2,0-3,.32-3.86.7-7.72,1-11.58.15-1.7.27-3.4.35-5.11.14-3.11,2-5.05,4.48-6.49a2.38,2.38,0,0,1,1.94.28c1.43.8,2.76,1.79,4.16,2.66a1.49,1.49,0,0,0,1.13.21c2.55-.92,3.88.63,4.28,2.63,1.07,5.35,3,10.47,3.22,16.07.27,7.3-1.17,14.4-1.45,21.6-.21,5.6-2.56,10.65-3.49,16.05-.26,1.53-3.14,3.51-4.71,3.4a26.83,26.83,0,0,1-5.77-.51A5,5,0,0,1,71.6,396a53.55,53.55,0,0,1-2-9.64C69.07,381.72,68.86,377,68.43,371.36Zm11.81-14.29-.93.13q.41,7.35.8,14.71l1.07-.07Z"/></svg>