<svg xmlns="http://www.w3.org/2000/svg" width="215" height="400" viewBox="0 0 215 400"><path d="M177.64,317.34c1.28,1.9-.44,4-.54,6.2,0,.3-1,.81-1.57.8-3.44,0-6.91-.56-10.29-.2-4.56.48-8.9-.43-13.35-.9-5.51-.58-11.08-.66-16.62-1-2.75-.17-5.5-.3-8.24-.6-4.25-.48-8.48-1.17-12.74-1.63-3.54-.38-7.09-.55-10.64-.82-5.13-.39-10.25-.84-15.37-1.15a25.09,25.09,0,0,0-3.74.38c-3.18.26-6.36.69-9.54.71-3.8,0-7.59-.48-11.39-.46-2.36,0-4.71.64-7.08.86-1.53.14-3.09-.06-4.62.06-2.68.21-5.34.58-8,.79a3.64,3.64,0,0,1-2.22-.4,22.3,22.3,0,0,1-2.7-2.77c2.46-1.18,3.25-3.2,3.09-5.86a8.73,8.73,0,0,1,.93-3.46c1.72-4.4,3.56-8.76,5.24-13.19a18.27,18.27,0,0,0,1-4.52c.35-3.3,3.24-5.2,4.3-8.08,1.6-4.33,3.93-8.37,4.53-13.12.29-2.27,1.74-4.39,2.66-6.58.68-1.62,1.36-3.24,2-4.87,2.53-6.33,5.08-12.65,7.55-19,.69-1.76,1.13-3.61,1.71-5.5a53.21,53.21,0,0,1-4.25-3.62,2.64,2.64,0,0,1-.61-2.28,4.57,4.57,0,0,1,2.08-1.77c.44-.24,1.12-.05,1.69,0,4.54,0,4.61.06,6-4.28,1.51-4.68,2.82-9.44,4.35-14.12.91-2.79,2.08-5.5,3.14-8.25,1.25-3.26,2.81-6.44,3.65-9.8.47-1.86-.16-4-.49-6s.51-3.61,2.63-3.58c1.74,0,2.31-.74,2.69-2.29.76-3.06,1.73-6.07,2.67-9.08.14-.44.77-.75.87-1.18.22-1,.65-2.18.27-2.92a85.65,85.65,0,0,0-4.45-7.39c-1-1.61-.95-3.47.58-4a6,6,0,0,1,3.35-.09,40.23,40.23,0,0,1,4.92,2.1,37.44,37.44,0,0,0,1.2-4.41,37.13,37.13,0,0,0,.07-4.09c0-.46.15-1.21.43-1.32,3.19-1.25,2.78-4.45,3.81-6.86.41-1,.72-2,1.16-2.94.73-1.57,1.47-3.15,2.33-4.65a3.54,3.54,0,0,1,1.6-1.68c2.51-.83,4.45.48,5.24,3,2.29,7.23,3.48,14.77,6.43,21.81,1.57,3.73,2.6,7.68,4,11.48.8,2.13,2,4.1,2.83,6.23,1,2.69,1.78,5.48,2.67,8.22.57,1.74,1.24,3.46,1.71,5.22,1.07,4,2,8.11,3.07,12.11,1.25,4.47,2.69,8.89,4.05,13.33,1.16,3.78,2.29,7.57,3.52,11.33,1.64,5,3.48,9.92,5,14.94,1.25,4.11,2.13,8.33,3.29,12.47a69.59,69.59,0,0,0,2.29,6.75c1.18,3,2.55,5.9,3.75,8.89.62,1.54,1,3.17,1.56,4.75,1.55,4.43,3.17,8.83,4.68,13.28,1,3,1.79,6.15,2.93,9.13.89,2.33,2.19,4.49,3.26,6.76.49,1,.88,2.13,1.3,3.2,1.29,3.34,2.59,6.68,3.86,10a28.62,28.62,0,0,1,1.28,4C178.56,315.84,178,316.44,177.64,317.34ZM71,253.25a16.32,16.32,0,0,0,3.4-.63c1.69-.74,3.14-.7,4.44.68,1.77,1.88,4.07,2.4,6.52,2.59,1.57.13,3.13.34,4.33.47-.84-3.67-1.61-7.32-2.53-10.93-.37-1.49-.27-3.13-2.21-4a56.44,56.44,0,0,1-6.44-4.11,3.92,3.92,0,0,0-.7-.28C75.58,242.27,73.45,247.34,71,253.25Zm14.85,48.41L85,302a43.12,43.12,0,0,1-.9,4.27c-.16.55-1,1.42-1.3,1.32-4.74-1.66-9.49-3.33-14.13-5.27A85.84,85.84,0,0,1,61,298.18c0,.19-.11.34-.07.45,1.82,4.65,4.85,8.54,7.78,12.49.2.28.74.29,1.09.47,2.28,1.16,4.67.51,7,.61s4.83.45,7.29-.15a12.57,12.57,0,0,1,4.11-.07,32.35,32.35,0,0,1,4,.93c-.5-1-.81-1.59-1.1-2.19-1-2.1-2-4.24-3.1-6.27A19.85,19.85,0,0,0,85.83,301.66Zm39.39-43.12a31.82,31.82,0,0,0-5.86.09c-1.17.23-2.85,1-2.35,2.71.86,3.05,2,6,3,9a2,2,0,0,0,1.25,1.06c2.46.62,4.94,1.12,7.53,1.69C129.4,267.73,126.26,263.17,125.22,258.54Zm-12.34,50c.43,1.54.77,2.61,1,3.7a2.46,2.46,0,0,0,3.22,2.07,25,25,0,0,1,6.06-.91c3.65.21,7.28.89,10.92,1.41,1.67.23,3.32.56,5,.84-1.81-2.57-3.13-5.39-6.71-5.6-2.54-.15-5.32-.17-7.52-1.23C120.75,306.81,117,309,112.88,308.51ZM116,238.65a15.59,15.59,0,0,0-2.87,0c-1,.21-2.38.4-2.08,1.82.44,2.09,1.29,4.08,1.84,6.15s.88,4.27,1.52,6.35c.2.64,1.14,1.56,1.66,1.51a44.73,44.73,0,0,0,5.17-1.06c1.4-.28,1.54-1,.93-2.17-.86-1.62-1.76-3.21-2.56-4.86C118.33,243.73,117.11,241,116,238.65ZM59.5,285.35a16.24,16.24,0,0,1-.77,1.92c-1,1.64-1,2.89.94,3.94,2.57,1.35,4.06,4.42,7.35,4.71a3,3,0,0,1,.93.47c2.46,1.31,4.89,2.65,7.38,3.9.37.19,1-.05,1.45-.1a4.7,4.7,0,0,0-.57-1.24,33.39,33.39,0,0,0-3-3c-1.33-1.11-2.74-2.11-4.15-3.09s-2.8-1.68-4.07-2.69C63.16,288.73,61.44,287.08,59.5,285.35Zm21.29-17.16a2.21,2.21,0,0,0,0,.81c1.23,3.27,2.48,6.55,3.76,9.81,1.36,3.47,2.53,7.2,7.63,5.73.25-.07.59.14,1.07.27,0-.8.17-1.55-.12-1.88C89,278.11,87.12,271.42,80.79,268.19Zm64.18,9.2-8.27-22-.57.31-1.95.19a4.36,4.36,0,0,0,0,1.15c1.73,5.45,3.31,10.95,5.32,16.29C140.26,275.25,141.64,277.3,145,277.39Zm-8-37.94a22.62,22.62,0,0,0-.54-2.42c-1-3-2-6.06-3.2-9-2.69-6.46-5.64-12.8-8.25-19.29-1-2.44-3.39-3.37-4.84-5.36a6.2,6.2,0,0,0,.67,2.34c1.63,3,3.54,5.76,4.92,8.82a91,91,0,0,1,4.5,11.91C131.53,231.05,132.06,235.92,136.94,239.45Zm32.54,76.25a3.26,3.26,0,0,0,.06-1q-1.83-5.76-3.71-11.49c-.08-.26-.29-.67-.46-.68-2.41-.09-2.66-2.18-3.62-4.3.26,3.26,0,6.07.77,8.6,1.77,5.94,1.84,6.48-2.64,10.11ZM111.83,213.5a10.71,10.71,0,0,0-3.41-8.7c-.89-.91-1.62-2-2.53-2.87-2.16-2.09-4.38-4.12-6.76-6.35C98.56,200.17,107.55,212.41,111.83,213.5Zm-16.2,62a14.18,14.18,0,0,0,0-3.31c-.81-2.93-2-5.76-2.62-8.72-.39-2-1.69-2.55-3.12-2.86a19.1,19.1,0,0,0-4.13-.07C87.41,266.21,91,270.76,95.63,275.54ZM119,187.68a10.93,10.93,0,0,0,1.65-9.78c-1.84,2.4-2.15,2.5-4.34,1.07-1.85-1.21-3.66-2.48-5.88-4C112,180.38,113.32,185.39,119,187.68Zm-7.27,96.12-.13.73c-1.39.5-2.79,1-4.15,1.51-.76.32-2.11,1-2.06,1.21.52,1.74.84,4.21,2.08,4.88,2,1.07,4.59,1,7,1.22.18,0,.76-1,.66-1.47a46.24,46.24,0,0,0-1.66-5.91A9,9,0,0,0,111.75,283.8ZM70.16,285c3.33,3.18,6.53,6,9.44,9.1a7.07,7.07,0,0,0,5.25,2.55,13.93,13.93,0,0,0-.68-1.55c-.84-1.38-1.86-2.68-2.58-4.12C79.9,287.56,74.52,284.57,70.16,285Zm62.3-74.44.7-.32-8.53-22.52c-2.13,3-2,5.31-.18,7.9a39.21,39.21,0,0,1,2.72,4.54C129,203.58,130.7,207.07,132.46,210.54ZM75.29,279.92l.49-.34L66,267.66c-.62,1.72-.91,2.72-1.32,3.66-1.1,2.5.24,4.67,3,4.89a5.76,5.76,0,0,1,2.22.62C71.71,277.8,73.49,278.88,75.29,279.92Zm2-5.83.44-.26c-.81-2.52-1.95-5-2.36-7.58-.48-3.06-2.9-4.1-4.89-5.61-.37-.28-1.58.08-2,.53a1.92,1.92,0,0,0-.07,1.91c2,2.36,3.39,5.34,6.12,7.11a2.19,2.19,0,0,1,.55.65C75.79,271.92,76.53,273,77.27,274.09Zm16.34-78.76-1-.14c-.39.87-.83,1.71-1.14,2.61a49.78,49.78,0,0,1-1.9,5.72c-1.9,3.89-1.69,5.22,2.26,8.17C92.06,206,93.92,200.78,93.61,195.33Zm23.78-33c-2.78-8.49-4.76-11.71-7.47-12.27C108.9,156.19,109.81,156.62,117.39,162.37ZM48.13,312.25c1.64,0,3.28-.38,4.62.1A6.56,6.56,0,0,0,58,312l-5.87-6.95ZM119,173.82l.57-.56A15,15,0,0,0,117.7,171c-3.64-3-7.33-6-11-9a1.06,1.06,0,0,0-.34-.24c-.38-.09-.77-.14-1.15-.2a3.34,3.34,0,0,0,0,1.34,4.74,4.74,0,0,0,1.1,1.53,51.59,51.59,0,0,0,4.16,3.52C113.26,170,116.14,171.88,119,173.82Zm13.37,77.39,1,.22c.72-1.37,2.24-2.91,2-4.08-.69-3.38-3.51-5.37-6-7.49l-.63.33Q130.56,245.71,132.35,251.21Zm-47.8-32c-1,2.51-2,4.73-2.73,7-.16.5.68,1.46,1.26,2a2.88,2.88,0,0,0,1.77.53,3.67,3.67,0,0,0,2.26-.39,2.42,2.42,0,0,0,.18-2.06C86.52,224.11,85.59,221.91,84.55,219.24Zm12.87,88.81c.89,2.63,1.49,5,4.64,4.74,1.22-.09,2.46-.05,3.66-.24.35-.05.92-.86.83-1.07-.38-.83-.85-2.08-1.52-2.25C102.65,308.65,100.18,308.45,97.42,308.05Zm4.69-49.66c-1.36-3.59-2.46-6.51-3.57-9.43l-.66.1c-.26,1.36-.44,2.73-.79,4.06s-.89,2.78-1.41,4.35Zm33.5,32.89-1,.36c.49,2,.35,4.73,1.62,5.87,1.66,1.49,4.44,1.73,7.05,2.61l-1.91-5.55c-1.34,2-2.85,1.81-4-.37C136.88,293.19,136.22,292.25,135.61,291.28Zm-39,7a7.08,7.08,0,0,0,.07-1.85c-.37-1.44-.19-2.19,1.57-1.84.22,0,1-1,.89-1.42a22.77,22.77,0,0,0-1.51-3.54L92,295.13Zm14-78.67c1.39,2.1,2.75,4.23,4.22,6.27.19.27,1.1.27,1.51.07s1-.9.91-1.25c-.32-1.55-.85-3-1.34-4.69C113.9,221.8,112.76,219.55,110.64,219.61Zm-6-35.36.4-.2-4.34-11.91L99,176.86C101,179.42,102.8,181.84,104.65,184.25Zm-8.37,44.92c0-2.86,0-5.42,0-8,0-.39-.41-.76-.63-1.14-.38.3-1,.51-1.11.9C93.26,223.91,93.21,226.69,96.28,229.17ZM79.9,231.48c1.2,2.94,2.67,4,5.49,4C85.45,232.3,84.57,231.64,79.9,231.48Zm72.3,84.25c0-1.63-4.22-3.28-7.53-3.11C145.64,314.47,149.06,315.92,152.2,315.73Zm-28.55-96.38-.87.25,4,13.79.77-.22ZM90,221.82c.88-5.53.59-6.21-3-7Zm57.09,69.73.63-.2c-.49-2.36-1-4.74-1.54-7.07-.08-.3-.93-.39-1.43-.57-.11.42-.41.92-.29,1.26C145.25,287.18,146.16,289.36,147.05,291.55Zm-21-8.38a9.88,9.88,0,0,0,1.25,3,2.32,2.32,0,0,0,2.23-.23c.44-.73.28-1.83.37-2.79Zm-34-37.59c.31,1.93.59,3.67.89,5.56C94.71,248,94.41,246,92.11,245.58Zm15.24,3.69L105,242.54C104.63,245.4,104.66,247.77,107.35,249.27Zm-2,19,.91-.65-1.9-3.11-1.22,1Zm-2.28,4.52L99.55,270C99.19,272.87,99.92,273.5,103.11,272.8Zm15.53,15.06.55-.21-1.94-5C116,285.39,117.76,286.46,118.64,287.86Z"/><path d="M171.24,61.51c-.5,5.64-.42,10.78-1.52,15.65A97,97,0,0,1,164,94.69a82.91,82.91,0,0,1-8.27,14.06c-2.56,3.67-5.46,7.18-10,8.82-2.34.83-4.36,2.51-6.6,3.68a11.58,11.58,0,0,1-3.54,1.24c-3.74.55-7.52.9-11.27,1.4a37.51,37.51,0,0,0-3.88.89c-.27.06-.54.35-.78.33a80.37,80.37,0,0,1-8.8-1.06c-2.16-.46-4.15-1.63-6.24-2.42-2.35-.89-4.73-1.68-7.08-2.56a39,39,0,0,1-4.86-2Q86.35,113.65,80.2,110c-.72-.43-1-1.54-1.65-2.16a31.84,31.84,0,0,1-6.35-9.14c-2.24-4.47-4.61-8.82-5.32-13.92-.55-4-1.86-7.82-2.56-11.77A44.08,44.08,0,0,1,64,66.05a71.2,71.2,0,0,1,.1-9.91,36.16,36.16,0,0,1,2.42-7.81,50.86,50.86,0,0,1,2.87-6.23c1.52-2.82,3.24-5.54,4.83-8.32a33.08,33.08,0,0,1,2.54-4.61A54.58,54.58,0,0,1,89.93,17.46c1.44-.91,2.51-2.44,4-3.2,3.27-1.67,6.69-3.07,10.08-4.52,2.08-.89,4.22-1.63,6.31-2.51a10.52,10.52,0,0,1,6-.68c2.5.4,5.1.11,7.66.21a38.79,38.79,0,0,1,4.14.45c2.85.41,5.72.73,8.53,1.34a15.86,15.86,0,0,1,3.79,1.76c3.75,2,7.76,3.56,10.45,7.16.46.62,1.64.7,2.49,1,3,1.11,4.17,3.94,5.7,6.29,2.78,4.26,5.65,8.5,6.64,13.7.31,1.64,1.66,3.07,2.09,4.72.87,3.33,1.47,6.73,2.12,10.12.4,2.09.67,4.19,1,6.29C171.05,60.44,171.2,61.27,171.24,61.51Zm-34.71,53.24c.73,0,1.72.31,2.22-.06,2.88-2.08,5.67-4.29,8.44-6.53a2,2,0,0,0,.68-1.6c-.13-.4-1-.66-1.53-.81-1.35-.36-2.73-.64-4.1-.92-1-.21-2.1-.38-2.71-.49ZM106.36,82.22c-3.59.35-6.59,2.13-10.16.87-1.48-.52-2.44,1-2.1,2.65.17.83.27,1.67.48,2.49.63,2.43,3,3.14,4.78,1.47,1.22-1.16,2.55-2.2,3.7-3.43S105.27,83.58,106.36,82.22Zm-8-29.93-.68.12c-.32,1.4-.65,2.8-1,4.21-.56,2.6-1,5.22-1.68,7.8a22,22,0,0,1-1.58,3.34A7.21,7.21,0,0,0,95,67.09c2.59-2.52,5.2-5,7.69-7.65a2.17,2.17,0,0,0,0-2.07C101.33,55.59,99.8,54,98.34,52.29Zm62,20.05c-1.38.88-3.08,1.35-3.62,2.41a41.33,41.33,0,0,0-2.49,7.38,2.4,2.4,0,0,0,.37,2c1.45,1.23,4.5.63,5.16-1.16A16.48,16.48,0,0,0,160.36,72.34Zm-54.1-17.68c.46-2.55.91-4.62,1.2-6.71a12.41,12.41,0,0,1,6-9.47,5.13,5.13,0,0,0,1.24-1.34c0-.06-.32-.6-.42-.58a8.91,8.91,0,0,0-1.71.6c-.24.11-.41.39-.61.59q-5,5-10,10.06c-.78.78-1.35,1.52-.28,2.5C103.13,51.7,104.63,53.12,106.26,54.66Zm18.58-10c-.14.48-.28.82-.34,1.16-.44,2.6-1.76,5.36.35,7.7a52.15,52.15,0,0,0,5.28,4.52l.47-.32c-.42-2.1-1.42-4.28-1.15-6.28C130,47.63,128,46,124.84,44.68Zm34.4,44.66c-1.69-.14-3-.19-4.31-.37-2-.27-3,.37-2.7,2.54.24,1.62.47,3.23.61,4.86.09,1.1,0,2.23,0,3.34l.67.16A35.74,35.74,0,0,0,159.24,89.34Zm-50,18.07-8.44-2.9a3.68,3.68,0,0,0,.18,4.6,14.43,14.43,0,0,1,1.3,2.42c.62,1.41,1.85,1.85,2.9.75C106.7,110.65,108.05,108.82,109.21,107.41ZM148,64c-.87,2.88-2.31,5.67-2.37,8.49,0,2.31.13,5.24,2.62,7C149.71,76.37,149.56,66,148,64ZM86.7,106a32.49,32.49,0,0,1,3,2.24c1.26,1.18,2,.58,2.68-.56a39.26,39.26,0,0,0,2.25-4.25,25.28,25.28,0,0,0,.92-3.8Zm41.84-7-.44.52,2.17,6.66c1.64,0,4.31-3,4.18-5Zm.57-24.9-.54.6A12.18,12.18,0,0,0,132.09,82c.46.42,1.57.15,2.38.19,0-.82.35-1.84,0-2.42a24.72,24.72,0,0,0-3.1-3.7A25.63,25.63,0,0,0,129.11,74.11ZM113.24,51.34l4.31-8.76C114.2,42.85,111.08,48.44,113.24,51.34Zm.9,59.72-5.84,4.46c1.85.83,3.57,2.13,5.23.59C115,114.74,114.41,112.89,114.14,111.06ZM107.1,75a5.64,5.64,0,0,0,.53-6.44C103.17,72.71,103.78,73,107.1,75ZM78.49,79.06a2.32,2.32,0,0,0,.1-.62,2,2,0,0,0-.29-.78c-1.63-1.93-1.59-4.17-1.45-6.53.06-.95-.62-1.95-1.11-3.34C73.71,71,75.24,76.23,78.49,79.06Zm8.92-29-.78-.44c-1.1,1.18-2.69,2.22-3.1,3.6-.25.84,1.32,2.22,2.08,3.36l.84-.24Zm23.2,48.4h.81a16.23,16.23,0,0,0,.22-3.53,1.81,1.81,0,0,0-3.43-.67,3,3,0,0,0,.28,2.47A7.94,7.94,0,0,0,110.61,98.42ZM79.4,87.77l-.73.19,1.26,7.14.95.06a14.62,14.62,0,0,0,1.47-3.27C82.78,89.58,80,89.48,79.4,87.77ZM77.09,64.89l-.72-7.47C73,61.41,73.09,64.08,77.09,64.89ZM96.22,27.31c-2,1.06-3.58,1.86-5.11,2.8a2.3,2.3,0,0,0-.76,1.34c.52.48,1.23,1.11,1.84,1.07C93.71,32.44,96,29.68,96.22,27.31Zm22.33,89.94H125c-.6-.68-.81-1.07-1.14-1.26-1.46-.84-2.94-1.62-4.86-2.66Zm6.72-57.61-1,.4a44.56,44.56,0,0,0,1.6,4.27c.23.47,1,.65,1.58,1,.2-.79.79-1.8.5-2.32A22.24,22.24,0,0,0,125.27,59.64ZM81,38.53c-3.47,3.61-5.07,7.25-4.11,9.61Zm4.71,27.34c-2.35,3.9-2.19,5.78,0,6.41ZM105,17.69l-.41-.84-7.45,3.72.34.7C100.63,21.36,102.13,18.09,105,17.69ZM105.45,28l.67,1.05a36.78,36.78,0,0,0,3.31-1.69c.26-.16.27-.87.22-1.31,0-.17-.68-.47-.83-.38C107.67,26.38,106.57,27.19,105.45,28Zm32.83,58.6-.78.09c-1,2.18.27,4.08.62,6.09l.92-.12ZM85.34,79.41,86,85.9C87.58,83.9,87.37,81.71,85.34,79.41Zm34-8.27c2-1.79,1.87-2.45-1-4.23C117.37,68.65,118.81,69.69,119.37,71.14Zm-6.85-50.46c.55,2.47,1.87,2.9,3.8,1.52Zm27,14.89c.18-2.54-.92-2.94-2.91-1.85Zm3.59,29.94c1.53-3.26,1.26-4.08-1-4.4C142.32,62.41,142.62,63.66,143.06,65.51ZM127.27,37.6c.61.66,1.11,1.21,1.62,1.75.33.34.68.65,1,1,.09-.56.42-1.24.21-1.64C129.57,37.64,128.84,36.58,127.27,37.6ZM95.11,76.41c-.43-1.55,2.37-2.27.19-3.84C94.05,73.54,93,74.45,95.11,76.41Z"/><path d="M147.13,174.38c-.13-2.26-2.1-4.83.51-6.47,1.29-.81,3.43-1.59,4.9.51.59-.64,1.13-1.12,1.56-1.69,1.48-2,1.3-2.76-.63-4.51-1.41-1.27-1.32-2.7-.45-4.39s2.37-1.74,3.81-1.31a23.73,23.73,0,0,1,3.79,1.92c.23-.2.66-.54,1-.92,3.2-3.2,6.26-6.55,9.63-9.56s6.93-5.54,10.4-8.32c1.06-.85,1.94-1.95,3.07-2.7,4.42-2.92,9.19-4.69,14.61-4.16a20.45,20.45,0,0,1,2.06-.07c2.95.6,3.45,1.85,3.09,4.88-.39,3.32-2,6-3.65,8.7-3,4.87-5.59,10-8.85,14.68-2.6,3.73-6,6.89-8.91,10.39-1.91,2.26-3.54,4.78-5.51,7-4.46,5-9.41,9.49-15.88,11.62a48.3,48.3,0,0,1-10.65,1.94c-2.39.22-6.56-4.12-6.91-6.76a47.51,47.51,0,0,1-.45-5.95C143.72,176.92,145.1,175.47,147.13,174.38Zm14.93-7.5-.82.38c.76,2.16,1.47,4.33,2.31,6.45.19.47.83.75,1.27,1.12.26-.61.9-1.42.71-1.81C164.48,170.92,163.23,168.92,162.06,166.88ZM192.55,145l-.37-.67a3.83,3.83,0,0,0-4.31,3.11ZM152.87,185.5,150.26,181C150.06,184.4,150.61,185.33,152.87,185.5Z"/><path d="M13.58,125.54c2.54,1,4.66,1.75,6.67,2.72,2.7,1.31,5.59,2.46,7.9,4.3,3.51,2.8,6.33,6.49,9.93,9.13a41,41,0,0,1,8.13,8c.8,1,.92,2.54,1.66,3.62.94,1.37,2.33,2.42,3.27,3.79,3.18,4.61,8.07,8.2,9.28,14,1.14,5.48,4.86,9.91,5.77,15.38a14,14,0,0,1-.27,6.24c-.26.85-2.5,1.74-3.64,1.52-2-.38-3.52-.21-5,1.19a1.53,1.53,0,0,1-1.48.18,115.4,115.4,0,0,1-9.56-7.89,88,88,0,0,1-14.33-19.16c-1.95-3.42-4.65-6.42-6.68-9.81-3.38-5.64-6.65-11.36-9.68-17.2A98.32,98.32,0,0,1,11,130.6c-1.15-3.06-.89-3.41,2.09-4.67A1.08,1.08,0,0,0,13.58,125.54Zm26.75,41.68L29,152.81c-.33.52-.29.8-.15,1,2.29,3.73,4.51,7.51,6.94,11.14C36.74,166.33,37.45,168.58,40.33,167.22ZM18.72,133.53l-.59.51c.82,1.78,1.65,3.57,2.45,5.32L25,137.27Zm42.1,54.8-2-5.93-3.68,5.93ZM48,181.48c.56-2.68-.36-3.71-3.7-4.35Z"/><path d="M139,362.22c-.18,4,0,8-.63,11.93a105.37,105.37,0,0,1-3.48,13.73c-.35,1.13-1.82,1.94-2.83,2.83-.52.46-1.29.66-1.73,1.16-2.77,3.13-6.23,1.53-8.38-.87-3.84-4.29-5.4-9.52-6-14.93a90.32,90.32,0,0,1-.32-17.24c.58-6.49,1.81-13.07,5.14-18.78,1.49-2.56,4.21-4.52,6.68-6.32,1.6-1.17,5.61,1.62,6.24,4,1.24,4.68,2.63,9.32,3.68,14C138.15,355.21,138.48,358.77,139,362.22ZM128.43,384c3.54-6,5.62-21.27,3.21-28-2,5.31-3.92,10.52-5.87,15.77,2.23-1.87,3.65-2.07,4.11-.4a15.47,15.47,0,0,1,.35,6A48.28,48.28,0,0,1,128.43,384ZM131,351.56l-1.68-3.13-.54.32-1.35,4.19Z"/><path d="M73.87,367.7V354.12a75.42,75.42,0,0,1,.08-8.9,52,52,0,0,1,2.14-9.46c.82-2.58,4.84-4.88,7.56-4.8,4.9.14,6.67,1.8,7.17,6.84.64,6.43,1.43,12.84,1.78,19.28.19,3.59-.4,7.21-.6,10.82-.19,3.31-.92,6.72-.37,9.91.92,5.34-2.8,8.34-4.95,12.2-1.49,2.66-3.67,3.63-6.43,2.85a4.63,4.63,0,0,1-2.81-2.43,47.41,47.41,0,0,1-2.07-8.33c-.77-4.78-1.31-9.6-2-14.4ZM85.6,343.78l-.41,0-3,7.22.39.13,3-3.39Z"/></svg>